<svg width="280" height="64" viewBox="0 0 280 64" xmlns="http://www.w3.org/2000/svg">
  <g fill="none" stroke="#C8102E" stroke-width="2.2" stroke-linecap="round" stroke-linejoin="round">
    <circle cx="32" cy="32" r="30" stroke="#C8102E" stroke-opacity="0.35"/>
    <path d="M22 46c-1-6 0-11 3-15 1.6-2.1 2-3.3 1.6-5.4-.3-1.6.2-3.1 1.5-4.2l.4-.3c.3 1.4.9 2.3 1.9 2.9 1.3.8 2.1-.2 3.6-.2 1.2 0 1.8.7 2.9 1.6 2.6 2 5.2 2.6 8.4 2.6 1.7 0 2.6.9 2.6 2.3 0 1.6-1.4 2.2-2.9 2.6-2 .6-3 1.2-4.2 2.9-1.5 2.1-2.1 4.2-2.3 7-.2 2.7.2 4.6 1 7.6"/>
    <path d="M30 21c-2.2-.6-3.8.3-5 2.2-1.3 2-1.2 3.7-.3 5.9"/>
  </g>
  <circle cx="33.5" cy="24.5" r="1.1" fill="#C8102E"/>
  <text x="74" y="30" font-family="Georgia, 'Times New Roman', serif" font-size="22" font-weight="600" fill="#1A1714" letter-spacing="0.5">Undgun Tsagaan</text>
  <text x="74" y="46" font-family="Arial, sans-serif" font-size="9" fill="#1A1714" fill-opacity="0.6" letter-spacing="3">ӨНДГӨН ЦАГААН</text>
</svg>
