<svg width="64" height="64" viewBox="0 0 64 64" xmlns="http://www.w3.org/2000/svg">
  <rect width="64" height="64" rx="14" fill="#C8102E"/>
  <g fill="none" stroke="#F7F3EC" stroke-width="2.4" stroke-linecap="round" stroke-linejoin="round">
    <path d="M22 47c-1-6 0-11 3-15 1.6-2.1 2-3.3 1.6-5.4-.3-1.6.2-3.1 1.5-4.2l.4-.3c.3 1.4.9 2.3 1.9 2.9 1.3.8 2.1-.2 3.6-.2 1.2 0 1.8.7 2.9 1.6 2.6 2 5.2 2.6 8.4 2.6 1.7 0 2.6.9 2.6 2.3 0 1.6-1.4 2.2-2.9 2.6-2 .6-3 1.2-4.2 2.9-1.5 2.1-2.1 4.2-2.3 7-.2 2.7.2 4.6 1 7.6"/>
    <path d="M30 22c-2.2-.6-3.8.3-5 2.2-1.3 2-1.2 3.7-.3 5.9"/>
  </g>
  <circle cx="33.5" cy="25.5" r="1.4" fill="#F7F3EC"/>
</svg>
